<svg xmlns="http://www.w3.org/2000/svg" viewBox="0 0 72 72"><circle cx="36" cy="36" r="36" style="fill:#111"/><path d="M40.893 31.58c.305 0 .407.001.407.204 0 .102-.05.254-.102.508l-3.2 11.124c-1.423 4.98-2.337 6.605-4.37 6.605-.66 0-.914-.204-.914-.458 0-.406.458-.152 1.22-.66a2.22 2.22 0 0 0 1.016-1.88c0-1.32-.915-2.083-2.286-2.083-1.524 0-2.642 1.22-2.642 2.795 0 2.234 1.676 3.403 3.81 3.403 3.86 0 6.248-2.59 9.042-8.33 1.474-3.1 2.591-6.25 3.81-10.568l.051-.05c0-.153.407-.61.66-.61h3.303c.558 0 .812-.254.812-.813q0-.762-.762-.762h-3.047c-.355 0-.508 0-.508-.254 0-.152.051-.305.102-.61 1.016-4.42 2.134-7.112 4.674-7.112.406 0 .812.102.812.407s-.254.254-.812.508c-.66.305-1.067 1.016-1.067 1.93 0 1.423 1.016 2.134 2.286 2.134 1.32 0 2.49-.864 2.49-2.743s-1.169-3.404-4.37-3.404c-4.927 0-7.67 3.505-9.347 8.382-.254.762-.305.762-1.016.762-.156.09-.169 1.458-.052 1.575m-16.595-1.574c-.56 0-.813.254-.813.813q0 .762.762.762h2.946c.305 0 .407 0 .407.203 0 .102-.05.254-.102.508l-3.2 11.124c-1.423 4.98-2.337 6.605-4.37 6.605-.66 0-.914-.204-.914-.458 0-.406.458-.152 1.22-.66a2.22 2.22 0 0 0 1.016-1.88c0-1.32-.915-2.083-2.286-2.083-1.524 0-2.642 1.22-2.642 2.795 0 2.234 1.676 3.403 3.81 3.403 3.86 0 6.248-2.59 9.042-8.33 1.474-3.1 2.591-6.25 3.81-10.568l.051-.05c0-.153.407-.61.66-.61.136-.136.438-1.443.306-1.575-.355 0-.508 0-.508-.254 0-.152.051-.305.102-.61 1.016-4.42 2.134-7.112 4.674-7.112.406 0 .812.102.812.407s-.254.254-.812.508c-.66.305-1.067 1.016-1.067 1.93 0 1.423 1.016 2.134 2.286 2.134 1.32 0 2.49-.864 2.49-2.743s-1.169-3.404-4.37-3.404c-4.927 0-7.67 3.505-9.347 8.382-.254.762-.305.762-1.016.762z" style="fill:#888"/><path d="M34.001 30.005h6.944l-.052 1.575h-7.198z" style="fill:#888"/></svg>