<svg xmlns="http://www.w3.org/2000/svg" viewBox="0 0 52.916 52.917"><circle cx="26.458" cy="26.459" r="26.459" style="fill:#fff"/><path d="M28.457 20.464c-1.143 0-1.103 1.575-.05 1.575h2.945c.305 0 .407 0 .407.203 0 .102-.05.254-.102.508l-3.2 11.125c-1.423 4.979-2.337 6.604-4.37 6.604-.66 0-.914-.203-.914-.457 0-.406.458-.152 1.22-.66a2.22 2.22 0 0 0 1.016-1.88c0-1.32-.915-2.083-2.286-2.083-1.524 0-2.642 1.22-2.642 2.794 0 2.235 1.676 3.404 3.81 3.404 3.86 0 6.248-2.591 9.042-8.331 1.474-3.1 2.591-6.249 3.81-10.567l.051-.05c0-.153.407-.61.66-.61h3.303c.558 0 .812-.254.812-.813q0-.762-.762-.762H38.16c-.355 0-.508 0-.508-.254 0-.152.051-.305.102-.61 1.016-4.42 2.134-7.112 4.674-7.112.406 0 .812.102.812.407s-.254.254-.812.508c-.66.305-1.067 1.016-1.067 1.93 0 1.423 1.016 2.134 2.286 2.134 1.32 0 2.49-.864 2.49-2.743s-1.169-3.404-4.37-3.404c-4.927 0-7.67 3.505-9.347 8.382-.254.762-.305.762-1.016.762zm-13.7 0c-.56 0-.813.254-.813.813q0 .762.762.762h2.946c.305 0 .407 0 .407.203 0 .102-.05.254-.102.508l-3.2 11.125c-1.423 4.979-2.337 6.604-4.37 6.604-.66 0-.914-.203-.914-.457 0-.406.458-.152 1.22-.66a2.22 2.22 0 0 0 1.016-1.88c0-1.32-.915-2.083-2.286-2.083-1.524 0-2.642 1.22-2.642 2.794 0 2.235 1.676 3.404 3.81 3.404 3.86 0 6.248-2.591 9.042-8.331 1.474-3.1 2.591-6.249 3.81-10.567l.051-.05c0-.153.407-.61.66-.61h3.303c1.142 0 1.103-1.575.05-1.575H24.46c-.355 0-.508 0-.508-.254 0-.152.051-.305.102-.61 1.016-4.42 2.134-7.112 4.674-7.112.406 0 .812.102.812.407s-.254.254-.812.508c-.66.305-1.067 1.016-1.067 1.93 0 1.423 1.016 2.134 2.286 2.134 1.32 0 2.49-.864 2.49-2.743s-1.169-3.404-4.37-3.404c-4.927 0-7.67 3.505-9.347 8.382-.254.762-.305.762-1.016.762z" style="fill:#000"/><path d="M27.508 20.464h.95l-.051 1.575h-.95z" style="fill:#000"/></svg>